<?xml version="1.0" standalone="no"?>
<!DOCTYPE svg PUBLIC "-//W3C//DTD SVG 20010904//EN"
 "http://www.w3.org/TR/2001/REC-SVG-20010904/DTD/svg10.dtd">
<svg version="1.0" xmlns="http://www.w3.org/2000/svg"
 width="1338.000000pt" height="1338.000000pt" viewBox="0 0 1338.000000 1338.000000"
 preserveAspectRatio="xMidYMid meet">
<metadata>
Created by potrace 1.11, written by Peter Selinger 2001-2013
</metadata>
<g transform="translate(0.000000,1338.000000) scale(0.100000,-0.100000)"
fill="#000000" stroke="none">
<path d="M3967 9506 c-2122 -563 -3860 -1026 -3862 -1028 -2 -2 337 -82 753
-177 416 -95 760 -175 765 -178 4 -2 7 -632 7 -1399 l0 -1395 -34 -33 c-46
-47 -56 -112 -22 -155 8 -11 5 -17 -14 -29 -78 -50 -154 -173 -179 -290 -16
-75 -14 -227 4 -297 62 -241 230 -360 393 -279 194 96 267 460 144 714 -26 52
-96 134 -135 155 -17 9 -17 12 -2 43 24 47 12 98 -31 138 l-34 33 0 1386 0
1387 22 -4 c13 -2 267 -60 566 -129 l542 -124 0 -2047 0 -2046 48 -10 c26 -6
1152 -204 2502 -442 l2455 -432 1640 439 1640 440 3 672 2 671 -22 0 c-13 -1
-446 -45 -963 -98 l-940 -97 -3 134 c-1 73 -1 135 0 136 3 3 1893 146 1916
145 9 0 12 131 12 620 l0 620 -22 0 c-13 0 -437 32 -943 70 -506 38 -930 70
-942 70 -23 0 -23 2 -23 138 l0 138 898 -93 c493 -51 927 -95 965 -99 l67 -7
0 592 c0 325 3 591 7 591 23 0 2129 384 2135 389 8 8 -5396 2185 -5431 2188
-14 1 -1762 -458 -3884 -1021z m3881 -1928 l-3 -153 -1290 -112 c-709 -61
-1302 -112 -1317 -112 l-28 -1 0 130 c0 97 3 130 13 131 6 0 584 60 1282 134
699 73 1287 133 1308 134 l38 1 -3 -152z m2 -1413 l0 -155 -568 0 c-313 0
-907 -3 -1320 -7 l-752 -6 0 131 0 132 28 1 c246 7 2375 57 2475 58 l137 1 0
-155z"/>
<path d="M11611 7104 c0 -11 3 -14 6 -6 3 7 2 16 -1 19 -3 4 -6 -2 -5 -13z"/>
</g>
</svg>
