<?xml version="1.0" standalone="no"?>
<!DOCTYPE svg PUBLIC "-//W3C//DTD SVG 20010904//EN"
 "http://www.w3.org/TR/2001/REC-SVG-20010904/DTD/svg10.dtd">
<svg version="1.0" xmlns="http://www.w3.org/2000/svg"
 width="355.000000pt" height="355.000000pt" viewBox="0 0 355.000000 355.000000"
 preserveAspectRatio="xMidYMid meet">
<metadata>
Created by potrace 1.11, written by Peter Selinger 2001-2013
</metadata>
<g transform="translate(0.000000,355.000000) scale(0.100000,-0.100000)"
fill="#000000" stroke="none">
<path d="M1875 3503 c-156 -13 -325 -89 -438 -196 -56 -53 -123 -148 -159
-225 -21 -45 -38 -89 -38 -98 0 -8 -3 -13 -7 -11 -9 6 -10 -2 -19 -173 -5
-108 -3 -137 15 -210 38 -151 102 -261 213 -365 216 -203 543 -254 817 -129
181 83 332 256 395 449 37 117 38 313 1 435 -61 199 -227 383 -420 463 -100
41 -261 68 -360 60z"/>
<path d="M1565 1961 c-55 -16 -133 -50 -194 -86 -14 -7 -57 -44 -96 -82 -40
-37 -94 -86 -121 -108 -318 -260 -499 -524 -517 -755 -15 -186 72 -327 260
-423 l88 -44 3 -102 c2 -86 5 -103 20 -108 9 -3 31 -11 47 -18 90 -39 358
-120 480 -145 208 -42 341 -54 544 -47 191 6 314 26 483 78 104 32 251 96 299
130 l29 20 -1 457 c0 251 -4 477 -9 502 -5 25 -14 68 -19 95 -5 28 -20 75 -31
105 -12 30 -24 64 -28 75 -3 11 -17 40 -31 65 -15 25 -32 56 -39 70 -25 48
-118 155 -176 201 -72 58 -162 104 -247 124 -99 23 -660 20 -744 -4z m623
-103 c20 -20 14 -41 -47 -171 -50 -104 -64 -126 -86 -131 -14 -4 -30 -4 -35
-1 -6 4 -10 73 -10 161 l0 154 83 0 c51 0 88 -5 95 -12z m-396 -374 l87 -38 6
-82 c4 -45 6 -266 4 -492 -4 -386 -5 -411 -23 -431 -11 -12 -23 -21 -28 -21
-9 0 -56 20 -170 73 l-67 31 34 33 c43 41 60 75 70 131 10 64 -10 136 -54 181
-55 58 -93 74 -193 79 -49 2 -88 6 -88 8 0 1 25 56 56 121 31 65 77 161 102
213 25 52 51 110 59 128 7 18 18 30 22 27 5 -3 7 3 4 13 -2 10 6 30 18 46 27
34 41 32 161 -20z m281 -26 c7 -64 22 -270 46 -632 l18 -270 -35 -50 c-20 -28
-48 -69 -64 -90 l-28 -39 0 566 0 567 29 0 c27 0 29 -3 34 -52z"/>
</g>
</svg>
