<?xml version="1.0" encoding="UTF-8" standalone="no"?>
<svg
   xmlns:dc="http://purl.org/dc/elements/1.1/"
   xmlns:cc="http://creativecommons.org/ns#"
   xmlns:rdf="http://www.w3.org/1999/02/22-rdf-syntax-ns#"
   xmlns:svg="http://www.w3.org/2000/svg"
   xmlns="http://www.w3.org/2000/svg"
   xmlns:sodipodi="http://sodipodi.sourceforge.net/DTD/sodipodi-0.dtd"
   xmlns:inkscape="http://www.inkscape.org/namespaces/inkscape"
   version="1.1"
   id="svg2"
   xml:space="preserve"
   width="931.32733"
   height="540.0885"
   viewBox="0 0 931.32732 540.08849"
   sodipodi:docname="navigator-logo.svg"
   inkscape:version="1.0.2 (1.0.2+r75+1)"><metadata
     id="metadata8"><rdf:RDF><cc:Work
         rdf:about=""><dc:format>image/svg+xml</dc:format><dc:type
           rdf:resource="http://purl.org/dc/dcmitype/StillImage" /><dc:title></dc:title></cc:Work></rdf:RDF></metadata><defs
     id="defs6"><clipPath
       clipPathUnits="userSpaceOnUse"
       id="clipPath18"><path
         d="M 0,841.89 H 1190.55 V 0 H 0 Z"
         id="path16" /></clipPath></defs><sodipodi:namedview
     pagecolor="#ffffff"
     bordercolor="#666666"
     borderopacity="1"
     objecttolerance="10"
     gridtolerance="10"
     guidetolerance="10"
     inkscape:pageopacity="0"
     inkscape:pageshadow="2"
     inkscape:window-width="1920"
     inkscape:window-height="1013"
     id="namedview4"
     inkscape:document-rotation="0"
     showgrid="false"
     fit-margin-top="0"
     fit-margin-left="0"
     fit-margin-right="0"
     fit-margin-bottom="0"
     inkscape:zoom="0.73406263"
     inkscape:cx="476.56227"
     inkscape:cy="270.04372"
     inkscape:window-x="0"
     inkscape:window-y="0"
     inkscape:window-maximized="1"
     inkscape:current-layer="g10" /><g
     id="g10"
     inkscape:groupmode="layer"
     inkscape:label="2016 02 12 FINAL Logo The Navigator Company F"
     transform="matrix(1.3333333,0,0,-1.3333333,-328.03599,831.30371)"><g
       id="g12"><g
         id="g14"
         clip-path="url(#clipPath18)"><g
           id="g20"
           transform="translate(650.6475,540.9077)"><path
             d="M 0,0 H 19.103 C 18.743,-17.361 12.377,-34.613 0,-48.338 Z m -53.797,-53.797 h 48.332 c -13.721,-12.381 -30.976,-18.747 -48.332,-19.109 z m -3.12,0 v -19.109 c -17.354,0.362 -34.608,6.728 -48.329,19.109 z M -110.704,0 v -48.334 c -12.039,13.325 -18.78,30.303 -19.147,48.334 z m 0,3.111 h -19.147 c 0.367,18.037 7.108,35.01 19.147,48.336 z m 53.787,53.795 h -48.329 c 13.721,12.383 30.975,18.75 48.329,19.11 z m 3.12,0 v 19.11 c 17.356,-0.36 34.609,-6.727 48.327,-19.11 z M 0,51.443 C 12.377,37.721 18.743,20.473 19.103,3.111 H 0 Z M -51.592,3.111 -3.12,51.588 V 3.111 Z M -51.603,0 H -3.12 v -48.485 z m -2.194,-2.212 48.464,-48.47 h -48.464 z m -3.12,0.005 v -48.475 h -48.471 z M -59.118,0 -107.591,-48.479 V 0 Z m -0.008,3.111 h -48.465 v 48.463 z m 5.329,50.682 H -5.326 L -53.797,5.313 Z m -3.12,-48.488 -48.485,48.488 h 48.485 z m 56.458,51.14 -0.005,0.002 c -30.268,30.272 -79.52,30.272 -109.784,0 -14.66,-14.656 -22.738,-34.15 -22.738,-54.887 0,-20.739 8.075,-40.229 22.735,-54.896 l 0.003,-0.004 c 15.135,-15.137 35.01,-22.703 54.891,-22.703 19.883,0 39.764,7.57 54.898,22.703 30.267,30.266 30.267,79.519 0,109.785"
             style="fill:#9d9c9c;fill-opacity:1;fill-rule:nonzero;stroke:none"
             id="path22" /></g><g
           id="g24"
           transform="translate(649.1133,483.6968)"><path
             d="m 0,0 c -1.14,0 -2.455,0.434 -3.799,1.776 l -98.83,98.828 -0.007,-95.333 c 0,-0.033 0,-0.064 -0.002,-0.091 l -0.005,-0.215 c -0.152,-3.622 -3.01,-4.947 -4.943,-4.947 -2.734,0 -4.95,2.216 -4.95,4.947 v 107.588 c 0,2.7 2.169,4.894 4.856,4.951 1.323,0.023 2.627,-0.479 3.598,-1.455 0.887,-0.886 73.943,-73.939 99.143,-99.136 v 93.55 c -13.245,12.539 -30.511,19.42 -48.846,19.42 -2.736,0 -4.951,2.217 -4.951,4.949 0,2.731 2.215,4.949 4.951,4.949 21.655,0 42.001,-8.426 57.294,-23.732 0.925,-0.926 1.446,-2.183 1.446,-3.496 V 4.965 C 4.955,2.967 3.75,1.164 1.904,0.397 1.365,0.17 0.717,0 0,0"
             style="fill:#1d1d1b;fill-opacity:1;fill-rule:nonzero;stroke:none"
             id="path26" /></g><g
           id="g28"
           transform="translate(772.666,240.7744)"><path
             d="m 0,0 -8.178,-9.992 v -9.899 c 0,-0.91 -0.736,-1.648 -1.647,-1.648 -0.909,0 -1.648,0.738 -1.648,1.648 v 9.899 l -8.215,10.039 c -0.576,0.701 -0.473,1.742 0.231,2.318 0.705,0.574 1.746,0.471 2.32,-0.232 l 7.312,-8.934 7.31,8.934 C -2.338,2.35 -2.109,2.516 -1.851,2.619 -1.006,2.957 -0.047,2.547 0.293,1.703 0.529,1.105 0.396,0.451 0,0 m -184.295,-7.754 h 13.879 v 5.379 c -1.913,1.707 -4.353,2.641 -6.939,2.641 -2.586,0 -5.027,-0.934 -6.94,-2.641 z m -1.648,-13.787 c -0.911,0 -1.648,0.736 -1.648,1.646 v 10.129 c -0.027,0.116 -0.042,0.239 -0.042,0.364 0,0.125 0.015,0.246 0.042,0.363 v 7.373 c 0,0.434 0.169,0.852 0.476,1.16 2.6,2.623 6.067,4.067 9.76,4.067 3.692,0 7.159,-1.444 9.757,-4.067 0.307,-0.308 0.48,-0.726 0.48,-1.16 v -7.736 c 0,-0.912 -0.738,-1.649 -1.649,-1.649 h -15.528 v -8.844 c 0,-0.91 -0.738,-1.646 -1.648,-1.646 m -110.101,5.113 c 1.916,-1.705 4.355,-2.64 6.942,-2.64 2.586,0 5.027,0.935 6.94,2.64 v 14.053 c -1.913,1.707 -4.354,2.641 -6.94,2.641 -2.587,0 -5.026,-0.934 -6.942,-2.641 z m 6.942,-5.935 c -3.694,0 -7.159,1.445 -9.759,4.068 -0.306,0.307 -0.478,0.725 -0.478,1.16 v 15.469 c 0,0.434 0.172,0.852 0.478,1.16 2.6,2.623 6.065,4.067 9.759,4.067 3.693,0 7.157,-1.444 9.758,-4.067 0.306,-0.308 0.478,-0.726 0.478,-1.16 v -15.469 c 0,-0.435 -0.172,-0.853 -0.477,-1.16 -2.602,-2.623 -6.066,-4.068 -9.759,-4.068 m 47.268,0.82 c -0.912,0 -1.65,0.736 -1.65,1.648 V 1.094 c 0,0.695 0.439,1.318 1.096,1.552 0.658,0.235 1.392,0.028 1.831,-0.511 l 7.275,-8.936 7.347,8.942 c 0.441,0.535 1.175,0.738 1.83,0.504 0.654,-0.237 1.091,-0.856 1.091,-1.553 v -20.985 c 0,-0.91 -0.738,-1.646 -1.646,-1.646 -0.912,0 -1.649,0.736 -1.649,1.646 v 16.387 l -5.707,-6.943 c -0.312,-0.379 -0.779,-0.6 -1.273,-0.6 h -0.004 c -0.492,0 -0.962,0.225 -1.273,0.608 l -5.622,6.9 v -16.354 c 0,-0.912 -0.738,-1.648 -1.646,-1.648 m 186.033,0.619 c -0.005,-0.004 -0.008,-0.01 -0.012,-0.015 -0.07,-0.084 -0.146,-0.163 -0.231,-0.231 h -0.001 c -0.002,-0.004 -0.003,-0.004 -0.006,-0.004 -0.067,-0.056 -0.143,-0.107 -0.221,-0.152 -0.006,-0.004 -0.013,-0.008 -0.019,-0.012 -0.073,-0.039 -0.149,-0.074 -0.229,-0.103 -0.013,-0.004 -0.028,-0.01 -0.041,-0.014 -0.075,-0.025 -0.153,-0.047 -0.234,-0.061 -0.015,-0.002 -0.029,-0.004 -0.045,-0.005 -0.082,-0.014 -0.162,-0.022 -0.246,-0.022 h -0.002 c -0.059,0 -0.118,0.004 -0.176,0.01 -0.008,0 -0.016,0.002 -0.025,0.002 -0.049,0.008 -0.1,0.013 -0.148,0.025 -0.012,0 -0.026,0.008 -0.039,0.01 -0.044,0.01 -0.085,0.021 -0.124,0.035 -0.019,0.006 -0.037,0.014 -0.055,0.02 -0.034,0.013 -0.07,0.025 -0.103,0.041 -0.021,0.009 -0.043,0.021 -0.063,0.029 -0.031,0.016 -0.06,0.031 -0.089,0.047 -0.022,0.013 -0.044,0.027 -0.065,0.041 -0.027,0.017 -0.053,0.037 -0.079,0.054 -0.02,0.014 -0.042,0.03 -0.061,0.045 -0.029,0.024 -0.056,0.047 -0.082,0.071 -0.016,0.015 -0.032,0.029 -0.048,0.043 -0.041,0.041 -0.081,0.084 -0.115,0.131 h -0.005 l -14.249,17.416 v -16.372 c 0,-0.912 -0.737,-1.648 -1.647,-1.648 -0.911,0 -1.649,0.736 -1.649,1.648 V 1.094 c 0,0.054 0.004,0.107 0.009,0.16 v 0.004 c 0.009,0.103 0.03,0.203 0.059,0.301 0.001,0.002 0.002,0.007 0.003,0.013 0.03,0.096 0.068,0.188 0.113,0.276 0.004,0.006 0.006,0.013 0.011,0.019 0.047,0.092 0.103,0.174 0.166,0.252 0.005,0.008 0.007,0.014 0.011,0.018 0.07,0.084 0.146,0.162 0.231,0.23 h 0.001 c 10e-4,0.002 0.003,0.002 0.005,0.002 0.083,0.069 0.174,0.131 0.27,0.18 0.006,0.004 0.01,0.006 0.016,0.01 0.089,0.046 0.184,0.084 0.283,0.113 0.005,0.002 0.013,0.002 0.02,0.004 0.096,0.029 0.191,0.049 0.294,0.056 0.005,0.002 0.012,0 0.018,0.002 0.045,0.004 0.091,0.008 0.139,0.008 0.161,0 0.318,-0.025 0.468,-0.068 0.001,-0.002 0.006,-0.002 0.008,-0.002 0.097,-0.031 0.191,-0.068 0.28,-0.115 0.006,-0.004 0.011,-0.006 0.017,-0.01 0.091,-0.047 0.175,-0.104 0.255,-0.166 0.004,-0.004 0.009,-0.01 0.015,-0.014 0.084,-0.066 0.162,-0.146 0.232,-0.228 l 14.25,-17.418 V 1.092 c 0,0.912 0.738,1.648 1.648,1.648 0.91,0 1.647,-0.736 1.647,-1.648 v -20.987 c 0,-0.056 -0.002,-0.109 -0.006,-0.162 v -0.002 c -0.013,-0.105 -0.033,-0.205 -0.06,-0.3 -0.002,-0.006 -0.003,-0.01 -0.005,-0.014 -0.029,-0.098 -0.067,-0.19 -0.111,-0.277 -0.005,-0.006 -0.007,-0.014 -0.011,-0.02 -0.049,-0.09 -0.103,-0.174 -0.167,-0.254 m -289.154,-1.437 c -3.693,0 -7.159,1.445 -9.761,4.068 -0.305,0.309 -0.475,0.727 -0.475,1.16 v 15.469 c 0,0.435 0.17,0.851 0.475,1.16 2.602,2.623 6.068,4.068 9.761,4.068 3.692,0 7.157,-1.445 9.758,-4.068 0.64,-0.646 0.636,-1.689 -0.009,-2.33 -0.648,-0.641 -1.691,-0.637 -2.332,0.01 -1.977,1.994 -4.611,3.092 -7.417,3.092 -2.587,0 -5.026,-0.934 -6.941,-2.641 v -14.053 c 1.915,-1.707 4.354,-2.637 6.941,-2.637 2.806,0 5.44,1.096 7.417,3.09 0.641,0.649 1.684,0.651 2.332,0.01 0.645,-0.641 0.649,-1.683 0.009,-2.33 -2.601,-2.623 -6.066,-4.068 -9.758,-4.068 m 216.509,12.972 v 7.041 c 1.914,1.692 4.351,2.619 6.929,2.619 2.58,0 5.02,-0.927 6.938,-2.619 v -7.041 z m 6.929,12.95 c -3.679,0 -7.136,-1.434 -9.738,-4.036 -0.308,-0.308 -0.482,-0.728 -0.482,-1.166 v -18.25 c 0,-0.908 0.736,-1.644 1.644,-1.644 0.908,0 1.647,0.736 1.647,1.644 v 7.213 h 13.867 v -7.213 c 0,-0.908 0.734,-1.642 1.642,-1.642 0.909,0 1.645,0.734 1.645,1.642 v 18.25 c 0,0.438 -0.174,0.858 -0.48,1.166 -2.602,2.602 -6.063,4.036 -9.745,4.036 m -113.907,177.567 c -0.642,-0.643 -0.642,-1.683 0,-2.325 0.641,-0.643 1.684,-0.643 2.324,0 1.627,1.626 3.661,2.602 5.778,2.936 v -20.034 c 0,-0.908 0.736,-1.644 1.642,-1.644 0.91,0 1.645,0.736 1.645,1.644 v 20.032 c 2.113,-0.332 4.146,-1.308 5.773,-2.934 0.321,-0.323 0.741,-0.485 1.162,-0.485 0.422,0 0.842,0.162 1.162,0.485 0.643,0.64 0.643,1.682 0,2.324 -5.371,5.373 -14.111,5.373 -19.486,10e-4 m 66.167,3.213 c -0.91,0 -1.648,-0.737 -1.648,-1.647 v -8.846 h -13.855 v 8.846 c 0,0.91 -0.737,1.647 -1.648,1.647 -0.911,0 -1.649,-0.737 -1.649,-1.647 v -20.987 c 0,-0.91 0.738,-1.646 1.649,-1.646 0.911,0 1.648,0.736 1.648,1.646 v 8.844 h 13.855 v -8.844 c 0,-0.91 0.738,-1.646 1.648,-1.646 0.91,0 1.649,0.736 1.649,1.646 v 20.987 c 0,0.91 -0.739,1.647 -1.649,1.647 m 49.894,-18.706 c 0.646,-0.639 0.65,-1.682 0.009,-2.328 -2.599,-2.625 -6.064,-4.069 -9.759,-4.069 -3.692,0 -7.158,1.444 -9.76,4.069 -0.305,0.306 -0.477,0.724 -0.477,1.16 v 7.373 c -0.025,0.115 -0.041,0.236 -0.041,0.359 0,0.123 0.016,0.244 0.041,0.36 v 7.377 c 0,0.434 0.172,0.852 0.477,1.159 2.602,2.623 6.068,4.069 9.76,4.069 3.695,0 7.16,-1.446 9.759,-4.069 0.641,-0.645 0.637,-1.689 -0.009,-2.331 -0.647,-0.639 -1.69,-0.637 -2.33,0.011 -1.979,1.995 -4.614,3.093 -7.42,3.093 -2.586,0 -5.026,-0.933 -6.94,-2.641 v -5.379 h 12.229 c 0.912,0 1.65,-0.739 1.65,-1.649 0,-0.91 -0.738,-1.648 -1.65,-1.648 h -12.229 v -5.377 c 1.914,-1.709 4.354,-2.639 6.94,-2.639 2.806,0 5.441,1.098 7.42,3.092 0.64,0.646 1.683,0.65 2.33,0.008 M 170.406,46.41 c 1.934,1.936 1.934,5.063 0,6.998 l -24.361,24.363 23.469,23.479 c 1.931,1.93 1.931,5.059 0.006,6.996 -7.76,7.787 -18.125,12.08 -29.188,12.092 h -0.014 -0.027 -0.014 c -11.109,-0.012 -21.5,-4.336 -29.269,-12.17 -0.961,-0.971 -1.471,-2.283 -1.43,-3.623 V 49.848 c 0,-2.733 2.213,-4.889 4.947,-4.889 2.739,0 4.954,2.219 4.954,4.949 v 52.651 c 5.716,5.091 13.039,7.873 20.824,7.877 6.74,-0.004 13.138,-2.086 18.443,-5.956 L 135.543,81.271 c -1.932,-1.931 -1.932,-5.066 0,-6.996 L 163.404,46.41 c 0.969,-0.965 2.239,-1.451 3.502,-1.451 1.268,0 2.532,0.486 3.5,1.451 m -547.037,35.018 v 21.181 c -5.758,5.084 -13.082,7.864 -20.828,7.864 -7.752,0 -15.07,-2.78 -20.822,-7.864 V 81.428 Z m 8.428,26.804 c 0.926,-0.927 1.447,-2.185 1.447,-3.496 V 49.893 c 0,-2.729 -2.211,-4.944 -4.937,-4.944 -2.727,0 -4.938,2.215 -4.938,4.944 v 21.656 h -41.65 V 49.893 c 0,-2.729 -2.213,-4.944 -4.942,-4.944 -2.728,0 -4.939,2.215 -4.939,4.944 v 54.843 c 0,1.311 0.523,2.569 1.445,3.496 7.813,7.813 18.205,12.116 29.258,12.116 11.053,0 21.441,-4.303 29.256,-12.116 m 109.791,9.625 c -2.729,0 -4.938,-2.209 -4.938,-4.939 V 49.893 c 0,-2.729 2.209,-4.944 4.938,-4.944 2.728,0 4.935,2.215 4.935,4.944 v 63.025 c 0,2.73 -2.207,4.939 -4.935,4.939 m 86.685,-16.591 c 1.932,-1.93 5.057,-1.93 6.987,0 1.929,1.925 1.929,5.054 0,6.982 -16.127,16.131 -42.383,16.131 -58.522,0 -0.926,-0.928 -1.445,-2.182 -1.445,-3.494 V 58.092 c 0,-1.313 0.519,-2.567 1.445,-3.496 8.071,-8.067 18.666,-12.098 29.262,-12.098 10.598,0 21.195,4.031 29.26,12.098 0.926,0.929 1.445,2.254 1.445,3.56 v 23.069 c 0,2.722 -2.213,4.935 -4.941,4.935 h -25.768 c -2.725,0 -4.935,-2.213 -4.935,-4.935 0,-2.731 2.21,-4.944 4.935,-4.944 h 20.834 V 60.223 c -11.867,-10.465 -29.793,-10.465 -41.662,0.006 v 42.394 c 12.361,10.902 31.297,10.447 43.105,-1.357 m 114.707,6.982 c -1.927,-1.932 -1.927,-5.057 0,-6.988 1.93,-1.924 5.057,-1.924 6.981,0 4.891,4.885 10.996,7.82 17.348,8.824 V 49.893 c 0,-2.729 2.212,-4.944 4.939,-4.944 2.727,0 4.941,2.215 4.941,4.944 v 60.187 c 6.346,-1 12.452,-3.935 17.331,-8.82 0.966,-0.963 2.232,-1.447 3.496,-1.447 1.261,0 2.527,0.484 3.488,1.447 1.93,1.931 1.93,5.056 0.006,6.986 -16.133,16.139 -42.387,16.139 -58.53,0.002 m 129.75,-5.639 c -5.755,5.084 -13.076,7.864 -20.824,7.864 -7.75,0 -15.066,-2.78 -20.822,-7.864 v -42.38 c 5.756,-5.084 13.072,-7.868 20.822,-7.868 7.748,0 15.069,2.778 20.824,7.868 z m 8.432,5.623 c 0.93,-0.927 1.445,-2.185 1.445,-3.496 V 58.182 C 82.615,56.861 82.098,55.541 81.162,54.602 73.35,46.791 62.957,42.486 51.906,42.486 c -11.049,0 -21.445,4.305 -29.254,12.119 -0.929,0.928 -1.447,2.184 -1.447,3.495 v 46.636 c 0,1.311 0.518,2.569 1.447,3.496 7.809,7.813 18.205,12.116 29.254,12.116 11.051,0 21.442,-4.303 29.256,-12.116 M -86.563,81.428 v 21.181 c -5.757,5.084 -13.082,7.864 -20.83,7.864 -7.752,0 -15.068,-2.78 -20.822,-7.864 V 81.428 Z m 8.434,26.804 c 0.924,-0.927 1.445,-2.185 1.445,-3.496 V 49.893 c 0,-2.729 -2.212,-4.944 -4.939,-4.944 -2.731,0 -4.94,2.215 -4.94,4.944 v 21.656 h -41.652 V 49.893 c 0,-2.729 -2.213,-4.944 -4.939,-4.944 -2.727,0 -4.94,2.215 -4.94,4.944 v 54.843 c 0,1.311 0.524,2.569 1.446,3.496 7.814,7.813 18.207,12.116 29.255,12.116 11.055,0 21.444,-4.303 29.264,-12.116 m -217.16,-62.953 c 1.908,0.731 3.172,2.571 3.172,4.617 v 63.016 c 0,2.731 -2.215,4.949 -4.951,4.949 -2.735,0 -4.952,-2.218 -4.952,-4.949 V 62.768 l -43.08,53.453 c -1.83,2.027 -4.964,2.189 -6.992,0.357 -2.027,-1.826 -2.187,-4.959 -0.355,-6.99 l 51.705,-63.004 c 0.957,-1.064 2.301,-1.635 3.674,-1.635 0.595,0 1.199,0.108 1.779,0.33 m -159.848,59.299 V 49.893 49.877 c 0,-0.01 -0.004,-0.02 -0.004,-0.02 -0.015,-2.716 -2.224,-4.918 -4.947,-4.918 -1.555,0 -2.939,0.719 -3.85,1.842 l -52.8,53.996 V 49.893 c 0,-2.735 -2.219,-4.954 -4.95,-4.954 -2.736,0 -4.951,2.219 -4.951,4.954 v 63.13 c 0,3.733 4.789,6.793 8.469,3.344 2.992,-3.056 53.131,-54.299 53.131,-54.299 v 40.453 c -5.746,5.125 -13.065,7.926 -20.828,7.926 -2.737,0 -4.951,2.219 -4.951,4.948 0,2.732 2.214,4.949 4.951,4.949 11.092,0 21.349,-4.299 29.31,-12.217 0.916,-0.908 1.42,-2.193 1.42,-3.549"
             style="fill:#1d1d1b;fill-opacity:1;fill-rule:nonzero;stroke:none"
             id="path30" /></g></g></g></g></svg>
