<?xml version="1.0" encoding="utf-8"?>
<!-- Generator: Adobe Illustrator 24.0.0, SVG Export Plug-In . SVG Version: 6.00 Build 0)  -->
<svg version="1.1" id="Camada_1" xmlns="http://www.w3.org/2000/svg" xmlns:xlink="http://www.w3.org/1999/xlink" x="0px" y="0px"
	 viewBox="0 0 370 179.3" style="enable-background:new 0 0 370 179.3;" xml:space="preserve">
<style type="text/css">
	.st0{fill:#3A4043;}
</style>
<g>
	<g>
		<path id="path4836_1_" class="st0" d="M297.9,25.2c-2.3,0-4.5,0.7-5.9,2.2c-6.3,6.3-23.4,23.4-29.7,29.7c-3,3-8.9,3-11.8,0
			l-10.2-10.3c0,0.1-0.1,0.2-0.2,0.2c-0.2,0.3-0.5,0.6-0.8,0.9c-0.3,0.3-0.6,0.5-0.9,0.8c0,0-0.1,0.1-0.1,0.1
			c3.1,3.1,6.2,6.2,9.3,9.2c3.7,4.4,10.8,5.3,15.5,2c8.9-8.8,17.8-17.6,26.7-26.4c2.1-1.9,3.9-4.5,6.7-5.5c0.4,0,0.8,0,1.2,0
			c1.2,0,2.5,0.2,3.5,0.9c2.2,1.7,2.4,5,1.1,7.3c-9.6,10.2-19.7,19.9-29.4,30c-4.2,3.7-4.9,10.6-1.7,15.2c1.2,1.2,2.4,2.4,3.6,3.6h0
			c3.7,3.8,7.4,7.6,11.1,11.4c4.8,4.8,9.7,9.8,14.5,14.6c2.3,1.9,3.2,5.5,1.7,8.1c-1.6,2.4-5.2,2.8-7.5,1.3
			c-4.3-4.1-8.9-8.6-13.1-12.8c0.3-0.6,0.4-1.2,0.4-1.8c0-2.3-1.9-4.2-4.2-4.2c-2.3,0-4.2,1.9-4.2,4.2c0,2.3,1.9,4.2,4.2,4.2
			c0.6,0,1.2-0.1,1.7-0.4l12.4,12.4c3,3,8.9,3,11.8,0c3-3,2.9-8.9,0-11.8l-25.1-25.2h0l-0.7-0.7l-0.1-0.1l-3.7-3.6
			c-3-3-3-8.9,0-11.8l29.6-29.6c3-3,3.2-8.9,0.2-11.8C302.5,26,300.2,25.3,297.9,25.2L297.9,25.2z M215.2,25.3
			c-2.2,0-4.4,0.7-5.9,2.2c-3,3-2.9,8.9,0,11.8l29.4,29.6c2.9,3,3,8.9,0,11.8c-3,3-23.5,23.7-29.4,29.6c-3,3-2.9,8.9,0,11.8
			c3,3,8.9,3,11.8,0s23.5-23.7,29.4-29.6c3-3,8.9-3,11.8,0l3.7,3.7l6.4,6.4c0-0.1,0.1-0.2,0.1-0.2c0.2-0.3,0.5-0.6,0.8-0.9
			c0.3-0.3,0.6-0.5,0.9-0.8c0,0,0.1-0.1,0.1-0.1c-1.9-2-3.9-3.9-5.9-5.8v0c-1.1-1-2.1-2.1-3.2-3.1c-3.7-4.5-10.9-5.5-15.7-2.1
			c-9.8,9.7-19.5,19.4-29.2,29.1c-1.8,2.6-5.7,3.6-8.5,2c-2.4-1.7-2.6-5.2-1.3-7.6c2.8-3,5.8-5.9,8.7-8.9c6.8-7,13.8-13.8,20.5-20.9
			c4.2-3.7,4.9-10.7,1.6-15.2c-4.9-5.1-9.9-10.2-14.8-15.2c-4.8-4.8-9.5-9.7-14.3-14.4c-2.3-1.9-3.2-5.5-1.7-8.1
			c1.6-2.4,5.2-2.8,7.5-1.3c4.3,4.1,8.6,8.4,12.9,12.6c-0.3,0.6-0.4,1.2-0.4,1.8c0,2.3,1.9,4.2,4.2,4.2c2.3,0,4.2-1.9,4.2-4.2
			s-1.9-4.2-4.2-4.2c-0.6,0-1.2,0.1-1.7,0.4l-12.1-12.2C219.6,26,217.4,25.3,215.2,25.3L215.2,25.3z M234.9,41.4
			c1.2,0,2.1,0.9,2.1,2.1s-0.9,2.1-2.1,2.1c-1.1,0-2.1-0.9-2.1-2.1S233.8,41.4,234.9,41.4z M277.8,103.9c1.2,0,2.1,0.9,2.1,2.1
			c0,1.2-0.9,2.1-2.1,2.1s-2.1-0.9-2.1-2.1C275.7,104.8,276.6,103.9,277.8,103.9z"/>
		<path id="path4838_1_" class="st0" d="M131.8,30.1c0-2.4,2.4-4.9,4.9-4.9c2.4,0,4.9,2.4,4.9,4.9v69c0,2.4-2.4,4.9-4.9,4.9
			s-4.9-2.4-4.9-4.9C131.8,99.1,131.8,30.1,131.8,30.1z"/>
		<path id="path4840_1_" class="st0" d="M117.3,45.9l-48.5,0c-2.4,0-4.9,2.4-4.9,4.9c-0.1,22.7,0,46.2,0,68.8c0,2.4,2.4,4.9,4.9,4.9
			c2.4,0,4.9-2.4,4.9-4.9v-15.5l43.7-0.1c0.3,0,0.6,0,0.9-0.1c0.9-0.2,1.7-0.7,2.4-1.4c0.9-0.9,1.7-2.1,1.7-3.3l0-48.2
			c0-1.8-1.4-3.7-3.1-4.5C118.6,46.1,118,45.9,117.3,45.9L117.3,45.9z M110,55.5c2.4,0,2.4,0,2.4,2.4c0,6.5,0,27.5,0,34
			c0,2.4,0,2.4-2.4,2.4c-6.5,0-27.6,0-34,0c-2.4,0-2.4,0-2.4-2.4c0-6.5,0-27.6,0-34c0-2.4,0-2.4,2.4-2.4
			C82.5,55.5,103.5,55.5,110,55.5z"/>
		<path id="path4868_1_" class="st0" d="M156.6,45.8c-2.4,0-5,2.4-5,4.9c0,8.2,0,46.1,0,48.5c0,2.4,2.4,4.7,4.9,4.7
			c0.2,0,0.5,0.1,0.7,0l48,0c0.3,0,0.6,0,0.9-0.1c1.2-0.3,2.3-1.1,3.1-2.1c0.4-0.5,0.6-1.1,0.8-1.7c0.1-0.3,0.1-0.6,0.1-0.9l0-48.4
			c0-2.4-2.4-4.9-4.9-4.9c-2.4,0-5,2.4-5,4.9l-0.1,41.4c0,2.4,0,2.4-2.4,2.4c-4.9,0-27.4,0-33.9,0c-2.4,0-2.4,0-2.4-2.4l0-41.4
			C161.4,48.3,159,45.8,156.6,45.8L156.6,45.8z"/>
	</g>
	<g>
		<g>
			<path class="st0" d="M62.8,144H64c0.1,0,0.2,0,0.3,0.1c0.1,0.1,0.1,0.1,0.2,0.2l2.1,6.9c0,0.1,0.1,0.3,0.1,0.4
				c0,0.1,0.1,0.3,0.1,0.5c0-0.2,0.1-0.3,0.1-0.5c0-0.1,0.1-0.3,0.1-0.4l2.3-6.9c0-0.1,0.1-0.2,0.2-0.2c0.1-0.1,0.2-0.1,0.3-0.1h0.4
				c0.1,0,0.2,0,0.3,0.1c0.1,0.1,0.1,0.1,0.2,0.2l2.3,6.9c0.1,0.2,0.2,0.5,0.2,0.8c0-0.2,0.1-0.3,0.1-0.4c0-0.1,0.1-0.3,0.1-0.4
				l2.1-6.9c0-0.1,0.1-0.2,0.2-0.2s0.2-0.1,0.3-0.1h1l-3.1,10h-1.2l-2.5-7.6c-0.1-0.1-0.1-0.3-0.1-0.5c0,0.1,0,0.2-0.1,0.3
				c0,0.1,0,0.2-0.1,0.2l-2.5,7.6H66L62.8,144z"/>
			<path class="st0" d="M83,154h-1.4v-10H83V154z"/>
			<path class="st0" d="M90.4,149.8v4.2h-1.3v-10h2.8c0.6,0,1.2,0.1,1.6,0.2c0.5,0.1,0.8,0.3,1.1,0.6s0.5,0.5,0.7,0.9
				c0.1,0.3,0.2,0.7,0.2,1.1c0,0.4-0.1,0.7-0.2,1c-0.1,0.3-0.3,0.6-0.5,0.8c-0.2,0.2-0.5,0.5-0.8,0.6c-0.3,0.2-0.6,0.3-1,0.4
				c0.2,0.1,0.3,0.2,0.4,0.4l2.9,4h-1.2c-0.2,0-0.4-0.1-0.5-0.3l-2.6-3.6c-0.1-0.1-0.2-0.2-0.3-0.2c-0.1,0-0.2-0.1-0.4-0.1H90.4z
				 M90.4,148.8h1.4c0.4,0,0.7,0,1-0.1c0.3-0.1,0.6-0.2,0.8-0.4s0.4-0.4,0.5-0.6c0.1-0.2,0.2-0.5,0.2-0.8c0-0.6-0.2-1-0.6-1.3
				c-0.4-0.3-1-0.5-1.8-0.5h-1.5V148.8z"/>
			<path class="st0" d="M107.3,144v1.1h-4.8v3.3h3.9v1.1h-3.9v3.4h4.8v1.1h-6.1v-10H107.3z"/>
			<path class="st0" d="M113.9,152.8h4.3v1.1h-5.7v-10h1.4L113.9,152.8L113.9,152.8z"/>
			<path class="st0" d="M129.1,144v1.1h-4.8v3.3h3.9v1.1h-3.9v3.4h4.8v1.1H123v-10H129.1z"/>
			<path class="st0" d="M139.5,145.5c0,0.1-0.1,0.1-0.1,0.2c0,0-0.1,0.1-0.2,0.1c-0.1,0-0.2,0-0.3-0.1c-0.1-0.1-0.2-0.2-0.4-0.3
				c-0.2-0.1-0.4-0.2-0.6-0.3s-0.5-0.1-0.8-0.1c-0.3,0-0.6,0-0.8,0.1c-0.2,0.1-0.4,0.2-0.6,0.3c-0.2,0.1-0.3,0.3-0.4,0.5
				s-0.1,0.4-0.1,0.6c0,0.3,0.1,0.5,0.2,0.7c0.1,0.2,0.3,0.3,0.5,0.5c0.2,0.1,0.5,0.2,0.8,0.3c0.3,0.1,0.6,0.2,0.9,0.3
				c0.3,0.1,0.6,0.2,0.9,0.3c0.3,0.1,0.5,0.3,0.8,0.5c0.2,0.2,0.4,0.4,0.5,0.7c0.1,0.3,0.2,0.6,0.2,1c0,0.4-0.1,0.8-0.2,1.2
				c-0.1,0.4-0.4,0.7-0.7,1c-0.3,0.3-0.6,0.5-1.1,0.7c-0.4,0.2-0.9,0.2-1.4,0.2c-0.6,0-1.2-0.1-1.8-0.4c-0.5-0.2-1-0.6-1.4-0.9
				l0.4-0.6c0-0.1,0.1-0.1,0.1-0.1c0.1,0,0.1-0.1,0.2-0.1c0.1,0,0.2,0.1,0.3,0.2s0.3,0.2,0.5,0.3c0.2,0.1,0.4,0.2,0.7,0.3
				c0.3,0.1,0.6,0.2,1,0.2c0.3,0,0.6,0,0.9-0.1c0.2-0.1,0.5-0.2,0.6-0.4s0.3-0.4,0.4-0.6c0.1-0.2,0.1-0.5,0.1-0.7
				c0-0.3-0.1-0.5-0.2-0.7c-0.1-0.2-0.3-0.4-0.5-0.5c-0.2-0.1-0.5-0.2-0.8-0.3s-0.6-0.2-0.9-0.3s-0.6-0.2-0.9-0.3s-0.5-0.3-0.8-0.5
				c-0.2-0.2-0.4-0.5-0.5-0.7c-0.1-0.3-0.2-0.7-0.2-1.1c0-0.4,0.1-0.7,0.2-1s0.3-0.6,0.6-0.9c0.3-0.3,0.6-0.5,1-0.6
				c0.4-0.2,0.8-0.2,1.3-0.2c0.6,0,1.1,0.1,1.5,0.3c0.5,0.2,0.9,0.4,1.2,0.8L139.5,145.5z"/>
			<path class="st0" d="M150.1,145.5c0,0.1-0.1,0.1-0.1,0.2c0,0-0.1,0.1-0.2,0.1c-0.1,0-0.2,0-0.3-0.1c-0.1-0.1-0.2-0.2-0.4-0.3
				c-0.2-0.1-0.4-0.2-0.6-0.3c-0.2-0.1-0.5-0.1-0.8-0.1c-0.3,0-0.6,0-0.8,0.1c-0.2,0.1-0.4,0.2-0.6,0.3c-0.2,0.1-0.3,0.3-0.4,0.5
				c-0.1,0.2-0.1,0.4-0.1,0.6c0,0.3,0.1,0.5,0.2,0.7c0.1,0.2,0.3,0.3,0.5,0.5c0.2,0.1,0.5,0.2,0.8,0.3c0.3,0.1,0.6,0.2,0.9,0.3
				c0.3,0.1,0.6,0.2,0.9,0.3c0.3,0.1,0.5,0.3,0.8,0.5c0.2,0.2,0.4,0.4,0.5,0.7c0.1,0.3,0.2,0.6,0.2,1c0,0.4-0.1,0.8-0.2,1.2
				c-0.1,0.4-0.4,0.7-0.7,1c-0.3,0.3-0.6,0.5-1.1,0.7c-0.4,0.2-0.9,0.2-1.4,0.2c-0.6,0-1.2-0.1-1.8-0.4c-0.5-0.2-1-0.6-1.4-0.9
				l0.4-0.6c0-0.1,0.1-0.1,0.1-0.1c0.1,0,0.1-0.1,0.2-0.1c0.1,0,0.2,0.1,0.3,0.2s0.3,0.2,0.5,0.3s0.4,0.2,0.7,0.3
				c0.3,0.1,0.6,0.2,1,0.2c0.3,0,0.6,0,0.9-0.1s0.5-0.2,0.6-0.4s0.3-0.4,0.4-0.6c0.1-0.2,0.1-0.5,0.1-0.7c0-0.3-0.1-0.5-0.2-0.7
				c-0.1-0.2-0.3-0.4-0.5-0.5c-0.2-0.1-0.5-0.2-0.8-0.3c-0.3-0.1-0.6-0.2-0.9-0.3c-0.3-0.1-0.6-0.2-0.9-0.3
				c-0.3-0.1-0.5-0.3-0.8-0.5c-0.2-0.2-0.4-0.5-0.5-0.7c-0.1-0.3-0.2-0.7-0.2-1.1c0-0.4,0.1-0.7,0.2-1s0.3-0.6,0.6-0.9
				c0.3-0.3,0.6-0.5,1-0.6s0.8-0.2,1.3-0.2c0.6,0,1.1,0.1,1.5,0.3c0.5,0.2,0.9,0.4,1.2,0.8L150.1,145.5z"/>
			<path class="st0" d="M161.6,154v-10h3.2c0.6,0,1.1,0.1,1.6,0.2c0.4,0.1,0.8,0.3,1.1,0.5c0.3,0.2,0.5,0.5,0.6,0.8
				c0.1,0.3,0.2,0.7,0.2,1.1c0,0.2,0,0.5-0.1,0.7c-0.1,0.2-0.2,0.4-0.3,0.6c-0.2,0.2-0.3,0.4-0.6,0.5s-0.5,0.3-0.8,0.4
				c0.7,0.1,1.3,0.4,1.6,0.8c0.4,0.4,0.6,0.9,0.6,1.5c0,0.4-0.1,0.8-0.2,1.2c-0.2,0.3-0.4,0.6-0.7,0.9c-0.3,0.2-0.7,0.4-1.1,0.6
				c-0.4,0.1-0.9,0.2-1.5,0.2L161.6,154L161.6,154z M163,148.5h1.8c0.4,0,0.7,0,1-0.1c0.3-0.1,0.5-0.2,0.7-0.3
				c0.2-0.1,0.3-0.3,0.4-0.5c0.1-0.2,0.1-0.4,0.1-0.7c0-0.6-0.2-1-0.5-1.3c-0.4-0.3-0.9-0.4-1.6-0.4H163L163,148.5L163,148.5z
				 M163,149.4v3.5h2.2c0.4,0,0.7,0,1-0.1c0.3-0.1,0.5-0.2,0.7-0.4c0.2-0.2,0.3-0.3,0.4-0.6c0.1-0.2,0.1-0.5,0.1-0.7
				c0-0.5-0.2-0.9-0.5-1.2s-0.9-0.5-1.7-0.5L163,149.4L163,149.4z"/>
			<path class="st0" d="M175.5,154h-1.4v-10h1.4V154z"/>
			<path class="st0" d="M190.7,149c0,0.7-0.1,1.4-0.4,2.1c-0.2,0.6-0.6,1.2-1,1.6c-0.4,0.5-0.9,0.8-1.6,1s-1.3,0.4-2,0.4
				s-1.4-0.1-2-0.4c-0.6-0.2-1.1-0.6-1.6-1c-0.4-0.5-0.8-1-1-1.6c-0.2-0.6-0.4-1.3-0.4-2.1s0.1-1.4,0.4-2.1c0.2-0.6,0.6-1.2,1-1.6
				c0.4-0.5,0.9-0.8,1.6-1.1c0.6-0.2,1.3-0.4,2-0.4c0.7,0,1.4,0.1,2,0.4s1.1,0.6,1.6,1.1c0.4,0.5,0.8,1,1,1.6
				C190.6,147.5,190.7,148.2,190.7,149z M189.3,149c0-0.6-0.1-1.2-0.2-1.7c-0.2-0.5-0.4-0.9-0.7-1.2c-0.3-0.3-0.7-0.6-1.1-0.8
				c-0.4-0.2-0.9-0.3-1.5-0.3c-0.5,0-1,0.1-1.5,0.3c-0.4,0.2-0.8,0.4-1.1,0.8c-0.3,0.3-0.5,0.7-0.7,1.2c-0.2,0.5-0.2,1-0.2,1.7
				c0,0.6,0.1,1.2,0.2,1.6c0.2,0.5,0.4,0.9,0.7,1.2c0.3,0.3,0.7,0.6,1.1,0.8c0.4,0.2,0.9,0.3,1.5,0.3c0.5,0,1-0.1,1.5-0.3
				c0.4-0.2,0.8-0.4,1.1-0.8c0.3-0.3,0.5-0.7,0.7-1.2C189.2,150.1,189.3,149.6,189.3,149z"/>
			<path class="st0" d="M200.9,145.5c0,0.1-0.1,0.1-0.1,0.2c0,0-0.1,0.1-0.2,0.1c-0.1,0-0.2,0-0.3-0.1c-0.1-0.1-0.2-0.2-0.4-0.3
				c-0.2-0.1-0.4-0.2-0.6-0.3s-0.5-0.1-0.8-0.1c-0.3,0-0.6,0-0.8,0.1c-0.2,0.1-0.4,0.2-0.6,0.3c-0.2,0.1-0.3,0.3-0.4,0.5
				s-0.1,0.4-0.1,0.6c0,0.3,0.1,0.5,0.2,0.7c0.1,0.2,0.3,0.3,0.5,0.5c0.2,0.1,0.5,0.2,0.8,0.3c0.3,0.1,0.6,0.2,0.9,0.3
				c0.3,0.1,0.6,0.2,0.9,0.3c0.3,0.1,0.5,0.3,0.8,0.5c0.2,0.2,0.4,0.4,0.5,0.7c0.1,0.3,0.2,0.6,0.2,1c0,0.4-0.1,0.8-0.2,1.2
				c-0.1,0.4-0.4,0.7-0.7,1c-0.3,0.3-0.6,0.5-1.1,0.7c-0.4,0.2-0.9,0.2-1.4,0.2c-0.6,0-1.2-0.1-1.8-0.4c-0.5-0.2-1-0.6-1.4-0.9
				l0.4-0.6c0-0.1,0.1-0.1,0.1-0.1c0.1,0,0.1-0.1,0.2-0.1c0.1,0,0.2,0.1,0.3,0.2c0.1,0.1,0.3,0.2,0.5,0.3c0.2,0.1,0.4,0.2,0.7,0.3
				c0.3,0.1,0.6,0.2,1,0.2c0.3,0,0.6,0,0.9-0.1s0.5-0.2,0.6-0.4c0.2-0.2,0.3-0.4,0.4-0.6c0.1-0.2,0.1-0.5,0.1-0.7
				c0-0.3-0.1-0.5-0.2-0.7c-0.1-0.2-0.3-0.4-0.5-0.5c-0.2-0.1-0.5-0.2-0.8-0.3c-0.3-0.1-0.6-0.2-0.9-0.3s-0.6-0.2-0.9-0.3
				c-0.3-0.1-0.5-0.3-0.8-0.5c-0.2-0.2-0.4-0.5-0.5-0.7c-0.1-0.3-0.2-0.7-0.2-1.1c0-0.4,0.1-0.7,0.2-1s0.3-0.6,0.6-0.9
				c0.3-0.3,0.6-0.5,1-0.6s0.8-0.2,1.3-0.2c0.6,0,1.1,0.1,1.5,0.3s0.9,0.4,1.2,0.8L200.9,145.5z"/>
			<path class="st0" d="M208.1,154h-1.4v-10h1.4V154z"/>
			<path class="st0" d="M218.5,153c0.3,0,0.5,0,0.7,0c0.2,0,0.4-0.1,0.6-0.1c0.2-0.1,0.4-0.1,0.6-0.2s0.4-0.2,0.5-0.2v-2.2h-1.5
				c-0.1,0-0.2,0-0.2-0.1s-0.1-0.1-0.1-0.2v-0.8h3.1v3.8c-0.2,0.2-0.5,0.3-0.8,0.5c-0.3,0.1-0.6,0.2-0.9,0.3c-0.3,0.1-0.6,0.2-1,0.2
				c-0.4,0-0.7,0.1-1.1,0.1c-0.7,0-1.4-0.1-2-0.4c-0.6-0.2-1.1-0.6-1.6-1c-0.4-0.4-0.8-1-1-1.6c-0.2-0.6-0.4-1.3-0.4-2.1
				c0-0.8,0.1-1.5,0.4-2.1c0.2-0.6,0.6-1.2,1-1.6c0.4-0.4,1-0.8,1.6-1s1.3-0.4,2.1-0.4c0.4,0,0.8,0,1.1,0.1c0.3,0.1,0.7,0.1,0.9,0.3
				c0.3,0.1,0.6,0.2,0.8,0.4c0.2,0.2,0.5,0.3,0.7,0.5l-0.4,0.6c-0.1,0.1-0.2,0.2-0.3,0.2c-0.1,0-0.2,0-0.2-0.1
				c-0.1-0.1-0.2-0.1-0.4-0.2c-0.1-0.1-0.3-0.2-0.5-0.3c-0.2-0.1-0.5-0.2-0.7-0.2c-0.3-0.1-0.6-0.1-1-0.1c-0.6,0-1.1,0.1-1.5,0.3
				c-0.5,0.2-0.8,0.4-1.2,0.8c-0.3,0.3-0.6,0.8-0.7,1.2c-0.2,0.5-0.3,1-0.3,1.6c0,0.6,0.1,1.2,0.3,1.7c0.2,0.5,0.4,0.9,0.8,1.3
				c0.3,0.3,0.7,0.6,1.2,0.8C217.4,152.9,217.9,153,218.5,153z"/>
			<path class="st0" d="M228.5,144c0.1,0,0.1,0.1,0.2,0.2l5.8,7.5c0-0.1,0-0.2,0-0.4c0-0.1,0-0.2,0-0.3V144h1.2v10h-0.7
				c-0.1,0-0.2,0-0.3-0.1s-0.1-0.1-0.2-0.2l-5.8-7.5c0,0.1,0,0.2,0,0.3c0,0.1,0,0.2,0,0.3v7.1h-1.2v-10h0.7
				C228.3,144,228.4,144,228.5,144z"/>
			<path class="st0" d="M249.5,154h-1c-0.1,0-0.2,0-0.3-0.1c-0.1-0.1-0.1-0.1-0.2-0.2l-0.9-2.4h-4.5l-0.9,2.4c0,0.1-0.1,0.2-0.2,0.2
				c-0.1,0.1-0.2,0.1-0.3,0.1h-1l4-10h1.4L249.5,154z M243,150.3h3.7l-1.6-4.1c-0.1-0.2-0.2-0.6-0.3-0.9c-0.1,0.2-0.1,0.4-0.1,0.5
				c0,0.2-0.1,0.3-0.1,0.4L243,150.3z"/>
			<path class="st0" d="M255.4,152.8h4.3v1.1H254v-10h1.4V152.8z"/>
		</g>
		<g>
			<path class="st0" d="M269.8,145.5c0,0.1-0.1,0.1-0.1,0.2c0,0-0.1,0.1-0.2,0.1c-0.1,0-0.2,0-0.3-0.1c-0.1-0.1-0.2-0.2-0.4-0.3
				c-0.2-0.1-0.4-0.2-0.6-0.3c-0.2-0.1-0.5-0.1-0.8-0.1c-0.3,0-0.6,0-0.8,0.1c-0.2,0.1-0.4,0.2-0.6,0.3c-0.2,0.1-0.3,0.3-0.4,0.5
				c-0.1,0.2-0.1,0.4-0.1,0.6c0,0.3,0.1,0.5,0.2,0.7c0.1,0.2,0.3,0.3,0.5,0.5c0.2,0.1,0.5,0.2,0.8,0.3c0.3,0.1,0.6,0.2,0.9,0.3
				c0.3,0.1,0.6,0.2,0.9,0.3c0.3,0.1,0.5,0.3,0.8,0.5c0.2,0.2,0.4,0.4,0.5,0.7c0.1,0.3,0.2,0.6,0.2,1c0,0.4-0.1,0.8-0.2,1.2
				c-0.1,0.4-0.4,0.7-0.7,1c-0.3,0.3-0.6,0.5-1.1,0.7c-0.4,0.2-0.9,0.2-1.4,0.2c-0.6,0-1.2-0.1-1.8-0.4c-0.5-0.2-1-0.6-1.4-0.9
				l0.4-0.6c0-0.1,0.1-0.1,0.1-0.1c0.1,0,0.1-0.1,0.2-0.1c0.1,0,0.2,0.1,0.3,0.2c0.1,0.1,0.3,0.2,0.5,0.3c0.2,0.1,0.4,0.2,0.7,0.3
				c0.3,0.1,0.6,0.2,1,0.2c0.3,0,0.6,0,0.9-0.1s0.5-0.2,0.6-0.4s0.3-0.4,0.4-0.6c0.1-0.2,0.1-0.5,0.1-0.7c0-0.3-0.1-0.5-0.2-0.7
				c-0.1-0.2-0.3-0.4-0.5-0.5c-0.2-0.1-0.5-0.2-0.8-0.3s-0.6-0.2-0.9-0.3s-0.6-0.2-0.9-0.3s-0.5-0.3-0.8-0.5
				c-0.2-0.2-0.4-0.5-0.5-0.7c-0.1-0.3-0.2-0.7-0.2-1.1c0-0.4,0.1-0.7,0.2-1s0.3-0.6,0.6-0.9c0.3-0.3,0.6-0.5,1-0.6s0.8-0.2,1.3-0.2
				c0.6,0,1.1,0.1,1.5,0.3c0.5,0.2,0.9,0.4,1.2,0.8L269.8,145.5z"/>
		</g>
		<g>
			<path class="st0" d="M288.7,145.5c0,0.1-0.1,0.1-0.1,0.2c0,0-0.1,0.1-0.2,0.1c-0.1,0-0.2,0-0.3-0.1c-0.1-0.1-0.2-0.2-0.4-0.3
				c-0.2-0.1-0.4-0.2-0.6-0.3c-0.2-0.1-0.5-0.1-0.8-0.1c-0.3,0-0.6,0-0.8,0.1c-0.2,0.1-0.4,0.2-0.6,0.3c-0.2,0.1-0.3,0.3-0.3,0.5
				c-0.1,0.2-0.1,0.4-0.1,0.6c0,0.3,0.1,0.5,0.2,0.7c0.1,0.2,0.3,0.3,0.5,0.5c0.2,0.1,0.5,0.2,0.8,0.3c0.3,0.1,0.6,0.2,0.9,0.3
				c0.3,0.1,0.6,0.2,0.9,0.3c0.3,0.1,0.5,0.3,0.8,0.5c0.2,0.2,0.4,0.4,0.5,0.7c0.1,0.3,0.2,0.6,0.2,1c0,0.4-0.1,0.8-0.2,1.2
				c-0.1,0.4-0.4,0.7-0.7,1c-0.3,0.3-0.6,0.5-1.1,0.7c-0.4,0.2-0.9,0.2-1.4,0.2c-0.6,0-1.2-0.1-1.8-0.4c-0.5-0.2-1-0.6-1.4-0.9
				l0.4-0.6c0-0.1,0.1-0.1,0.1-0.1c0.1,0,0.1-0.1,0.2-0.1c0.1,0,0.2,0.1,0.3,0.2c0.1,0.1,0.3,0.2,0.5,0.3s0.4,0.2,0.7,0.3
				c0.3,0.1,0.6,0.2,1,0.2c0.3,0,0.6,0,0.9-0.1c0.3-0.1,0.5-0.2,0.6-0.4c0.2-0.2,0.3-0.4,0.4-0.6c0.1-0.2,0.1-0.5,0.1-0.7
				c0-0.3-0.1-0.5-0.2-0.7c-0.1-0.2-0.3-0.4-0.5-0.5c-0.2-0.1-0.5-0.2-0.8-0.3c-0.3-0.1-0.6-0.2-0.9-0.3c-0.3-0.1-0.6-0.2-0.9-0.3
				s-0.5-0.3-0.8-0.5c-0.2-0.2-0.4-0.5-0.5-0.7c-0.1-0.3-0.2-0.7-0.2-1.1c0-0.4,0.1-0.7,0.2-1s0.3-0.6,0.6-0.9
				c0.3-0.3,0.6-0.5,1-0.6c0.4-0.2,0.8-0.2,1.3-0.2c0.6,0,1.1,0.1,1.5,0.3s0.9,0.4,1.2,0.8L288.7,145.5z"/>
		</g>
		<g>
			<path class="st0" d="M290.4,153.2c0-0.1,0-0.2,0.1-0.3c0-0.1,0.1-0.2,0.2-0.3c0.1-0.1,0.2-0.1,0.3-0.2c0.1,0,0.2-0.1,0.3-0.1
				c0.1,0,0.2,0,0.3,0.1c0.1,0,0.2,0.1,0.3,0.2s0.1,0.2,0.2,0.3c0,0.1,0.1,0.2,0.1,0.3c0,0.1,0,0.2-0.1,0.3c0,0.1-0.1,0.2-0.2,0.3
				c-0.1,0.1-0.2,0.1-0.3,0.2c-0.1,0-0.2,0.1-0.3,0.1c-0.1,0-0.2,0-0.3-0.1c-0.1,0-0.2-0.1-0.3-0.2s-0.1-0.2-0.2-0.3
				C290.4,153.4,290.4,153.3,290.4,153.2z"/>
		</g>
		<g>
			<path class="st0" d="M304.8,154h-1c-0.1,0-0.2,0-0.3-0.1c-0.1-0.1-0.1-0.1-0.2-0.2l-0.9-2.4h-4.5l-0.9,2.4c0,0.1-0.1,0.2-0.2,0.2
				c-0.1,0.1-0.2,0.1-0.3,0.1h-1l4-10h1.4L304.8,154z M298.2,150.3h3.7l-1.6-4.1c-0.1-0.2-0.2-0.6-0.3-0.9c-0.1,0.2-0.1,0.4-0.1,0.5
				c0,0.2-0.1,0.3-0.1,0.4L298.2,150.3z"/>
		</g>
		<g>
			<path class="st0" d="M305.4,153.2c0-0.1,0-0.2,0.1-0.3c0-0.1,0.1-0.2,0.2-0.3c0.1-0.1,0.2-0.1,0.3-0.2c0.1,0,0.2-0.1,0.3-0.1
				c0.1,0,0.2,0,0.3,0.1c0.1,0,0.2,0.1,0.3,0.2c0.1,0.1,0.1,0.2,0.2,0.3c0,0.1,0.1,0.2,0.1,0.3c0,0.1,0,0.2-0.1,0.3
				c0,0.1-0.1,0.2-0.2,0.3c-0.1,0.1-0.2,0.1-0.3,0.2c-0.1,0-0.2,0.1-0.3,0.1c-0.1,0-0.2,0-0.3-0.1c-0.1,0-0.2-0.1-0.3-0.2
				s-0.1-0.2-0.2-0.3C305.4,153.4,305.4,153.3,305.4,153.2z"/>
		</g>
	</g>
</g>
</svg>
