<svg width="375" height="148" viewBox="0 0 375 148" fill="none" xmlns="http://www.w3.org/2000/svg">
<path d="M323.645 123.077H316.259V112.014H319.038V120.967H323.645V123.077V123.077Z" fill="#EEA225"/>
<path d="M330.481 123.077H324.523V121.145H326.112V113.946H324.523V112.014H330.481V113.946H328.891V121.145H330.481V123.077Z" fill="#EEA225"/>
<path d="M335.742 123.278C334.895 123.278 334.151 123.196 333.51 123.033C332.868 122.869 332.273 122.667 331.723 122.424V119.793H331.975C332.53 120.264 333.142 120.626 333.811 120.878C334.479 121.131 335.128 121.257 335.757 121.257C335.915 121.257 336.125 121.24 336.385 121.205C336.645 121.171 336.854 121.116 337.013 121.042C337.206 120.958 337.37 120.84 337.503 120.689C337.637 120.538 337.704 120.339 337.704 120.091C337.704 119.814 337.595 119.588 337.377 119.415C337.159 119.241 336.899 119.115 336.596 119.036C336.22 118.937 335.818 118.843 335.389 118.754C334.961 118.665 334.561 118.555 334.19 118.427C333.333 118.125 332.718 117.718 332.347 117.208C331.975 116.698 331.79 116.059 331.79 115.291C331.79 114.256 332.228 113.418 333.105 112.776C333.981 112.135 335.076 111.814 336.389 111.814C337.047 111.814 337.703 111.881 338.354 112.015C339.005 112.149 339.588 112.329 340.104 112.557V115.083H339.858C339.447 114.732 338.946 114.434 338.354 114.192C337.762 113.949 337.154 113.828 336.53 113.828C336.287 113.828 336.069 113.845 335.876 113.88C335.683 113.914 335.48 113.981 335.267 114.08C335.093 114.16 334.944 114.277 334.817 114.433C334.691 114.589 334.628 114.764 334.628 114.957C334.628 115.239 334.728 115.463 334.929 115.629C335.129 115.795 335.517 115.945 336.091 116.079C336.463 116.163 336.821 116.245 337.165 116.324C337.509 116.403 337.877 116.512 338.268 116.651C339.036 116.928 339.607 117.301 339.981 117.769C340.355 118.237 340.542 118.855 340.542 119.623C340.542 120.722 340.11 121.607 339.245 122.275C338.381 122.944 337.213 123.278 335.742 123.278V123.278Z" fill="#EEA225"/>
<path d="M350.811 119.69C350.811 120.24 350.707 120.723 350.498 121.139C350.291 121.555 350.011 121.899 349.659 122.172C349.243 122.499 348.786 122.731 348.288 122.87C347.791 123.008 347.158 123.078 346.39 123.078H341.962V112.015H345.87C346.682 112.015 347.298 112.046 347.716 112.108C348.135 112.17 348.527 112.3 348.894 112.498C349.29 112.711 349.586 112.996 349.782 113.353C349.977 113.709 350.075 114.12 350.075 114.586C350.075 115.126 349.94 115.606 349.67 116.027C349.4 116.448 349.028 116.758 348.552 116.956V117.015C349.236 117.159 349.783 117.452 350.194 117.896C350.605 118.339 350.811 118.937 350.811 119.69V119.69ZM347.252 115.143C347.252 114.965 347.206 114.781 347.114 114.593C347.023 114.405 346.881 114.269 346.687 114.185C346.504 114.105 346.287 114.062 346.037 114.055C345.787 114.047 345.414 114.043 344.919 114.043H344.726V116.384H345.075C345.551 116.384 345.884 116.379 346.074 116.369C346.265 116.359 346.462 116.307 346.665 116.213C346.888 116.109 347.041 115.965 347.126 115.782C347.21 115.599 347.252 115.386 347.252 115.143V115.143ZM347.95 119.638C347.95 119.296 347.881 119.029 347.742 118.836C347.604 118.642 347.396 118.496 347.118 118.397C346.95 118.333 346.718 118.297 346.423 118.29C346.129 118.282 345.734 118.278 345.238 118.278H344.726V121.05H344.874C345.598 121.05 346.098 121.045 346.375 121.035C346.653 121.025 346.935 120.958 347.222 120.834C347.475 120.725 347.659 120.566 347.776 120.355C347.892 120.145 347.95 119.906 347.95 119.638V119.638Z" fill="#EEA225"/>
<path d="M362.478 117.549C362.478 119.337 362 120.743 361.044 121.769C360.089 122.794 358.778 123.307 357.114 123.307C355.445 123.307 354.135 122.788 353.184 121.75C352.233 120.712 351.757 119.312 351.757 117.549C351.757 115.771 352.233 114.365 353.184 113.332C354.135 112.3 355.445 111.783 357.114 111.783C358.778 111.783 360.089 112.297 361.044 113.325C362 114.353 362.478 115.761 362.478 117.549V117.549ZM359.611 117.541C359.611 116.883 359.542 116.321 359.406 115.859C359.27 115.395 359.088 115.015 358.86 114.718C358.622 114.416 358.354 114.199 358.054 114.068C357.754 113.937 357.443 113.871 357.122 113.871C356.78 113.871 356.47 113.932 356.193 114.053C355.915 114.174 355.648 114.391 355.39 114.703C355.163 114.99 354.978 115.372 354.837 115.847C354.696 116.323 354.625 116.89 354.625 117.549C354.625 118.227 354.692 118.791 354.826 119.239C354.96 119.687 355.143 120.062 355.376 120.364C355.613 120.672 355.883 120.891 356.185 121.022C356.488 121.153 356.8 121.219 357.122 121.219C357.449 121.219 357.766 121.148 358.073 121.007C358.38 120.866 358.645 120.647 358.868 120.35C359.105 120.028 359.288 119.652 359.417 119.224C359.546 118.796 359.611 118.235 359.611 117.541V117.541Z" fill="#EEA225"/>
<path d="M373.599 123.077H370.924L366.66 115.365V123.077H364.119V112.014H367.529L371.058 118.352V112.014H373.599V123.077V123.077Z" fill="#EEA225"/>
<path d="M38.715 50.7831L47.5788 57.2278L40.5427 66.9173H40.5599C40.4551 67.047 40.3538 67.1884 40.2546 67.3275C38.0493 70.3628 37.5857 74.127 38.6636 77.4448C38.6961 77.544 38.7134 77.6469 38.7532 77.7501C38.8315 77.9675 38.9268 78.1772 39.0204 78.3929C39.0662 78.4998 39.0947 78.6067 39.1445 78.7152C39.175 78.7818 39.2208 78.8449 39.253 78.9136C39.3771 79.1676 39.5029 79.4134 39.6463 79.6633V79.6806C39.7227 79.8084 39.8139 79.9305 39.8962 80.0567C40.022 80.2471 40.1538 80.4609 40.2912 80.6481C40.3024 80.6593 40.3024 80.6557 40.308 80.667C40.3309 80.7015 40.3538 80.7393 40.3808 80.7738C40.4495 80.8598 40.5238 80.9514 40.5945 81.041H40.5772L47.5427 90.6372L38.715 97.0494C29.617 86.276 14.032 83.6947 1.95729 90.8719C-0.673481 79.6481 -0.631296 68.0201 1.95729 56.9607C14.028 64.1358 29.617 61.5452 38.715 50.7831V50.7831ZM49.3683 66.8964C53.2642 66.8964 56.4254 70.0595 56.4254 73.9534C56.4254 77.8454 53.2642 81.0048 49.3683 81.0048C45.4744 81.0048 42.3325 77.8454 42.3325 73.9534C42.3325 70.0595 45.4744 66.8964 49.3683 66.8964Z" fill="#EEA225"/>
<path d="M85.212 33.049L81.8219 43.4693L70.4362 39.7702L70.4418 39.7871C70.2815 39.728 70.1156 39.6786 69.9537 39.6252C66.388 38.4673 62.664 39.1901 59.8404 41.2371C59.7524 41.3022 59.6628 41.35 59.5788 41.4167C59.3956 41.5577 59.2261 41.7144 59.0485 41.8707C58.9625 41.949 58.8653 42.01 58.7833 42.09C58.7263 42.1378 58.6805 42.2025 58.625 42.2523C58.4229 42.4488 58.2245 42.6453 58.0336 42.8606L58.0164 42.8666C57.9191 42.9771 57.8315 43.1029 57.7379 43.2174C57.5929 43.397 57.4306 43.5894 57.2972 43.7782C57.2916 43.7919 57.2916 43.7919 57.2855 43.7995C57.2626 43.83 57.2305 43.8642 57.2056 43.8988C57.1445 43.996 57.0798 44.0912 57.0147 44.1849L57.0127 44.1716L50.036 53.7582L41.2124 47.3479C48.6471 35.3632 46.2871 19.7421 35.7295 10.4757C45.5889 4.51024 56.66 0.953797 67.979 0C64.8846 13.6943 72.1666 27.7224 85.214 33.049H85.212V33.049ZM73.1795 48.1607C74.3816 51.8654 72.3554 55.8473 68.6487 57.049C64.9493 58.2511 60.9657 56.223 59.762 52.5239C58.5583 48.8188 60.5937 44.8525 64.2968 43.6488C67.9999 42.4448 71.9778 44.4576 73.1795 48.1607" fill="#EEA225"/>
<path d="M116.447 71.7914L105.488 71.7859L105.486 59.8124L105.473 59.824C105.481 59.6541 105.479 59.4825 105.479 59.3106C105.479 55.5601 103.64 52.2403 100.82 50.1912C100.734 50.1266 100.662 50.0558 100.568 49.9948C100.378 49.8634 100.175 49.7525 99.9709 49.6344C99.8737 49.5733 99.7861 49.5026 99.6813 49.4471C99.6202 49.411 99.5459 49.3825 99.4788 49.3483C99.2289 49.2145 98.9846 49.0888 98.7194 48.9743L98.7082 48.957C98.5748 48.8979 98.4257 48.8578 98.2847 48.8007C98.073 48.7203 97.8384 48.6272 97.6206 48.5545C97.6037 48.5545 97.6053 48.5544 97.5941 48.5508C97.5559 48.5372 97.5137 48.5183 97.4739 48.5066C97.3651 48.4761 97.2526 48.4459 97.1417 48.4154L97.1553 48.4058L85.8821 44.7353L89.255 34.3624C102.944 37.7296 117.071 30.6573 122.621 17.7529C131.345 25.2869 138.152 34.7172 142.555 45.1852C128.571 46.4749 117.483 57.7368 116.447 71.7914V71.7914ZM98.357 65.0149C95.2072 67.3045 90.7909 66.6042 88.5033 63.4544C86.212 60.3045 86.9143 55.8899 90.0637 53.6006C93.2136 51.3134 97.613 52.0229 99.9022 55.1748C102.19 58.3226 101.505 62.7276 98.357 65.0149" fill="#EEA225"/>
<path d="M89.2514 113.467L85.8726 103.043L97.2587 99.3415L97.245 99.3319C97.4053 99.2841 97.5696 99.2286 97.7295 99.1792C101.301 98.0173 103.89 95.2455 104.968 91.9297C105 91.8265 105.044 91.7369 105.075 91.632C105.14 91.407 105.186 91.1796 105.235 90.951C105.263 90.8381 105.302 90.7333 105.325 90.6172C105.34 90.5484 105.342 90.4661 105.351 90.3938C105.403 90.1153 105.447 89.8441 105.475 89.5545L105.487 89.5408C105.502 89.3922 105.494 89.2395 105.504 89.0888C105.517 88.8618 105.535 88.6099 105.535 88.3809C105.529 88.3656 105.529 88.3657 105.529 88.3544C105.531 88.3162 105.536 88.2684 105.535 88.2267C105.529 88.1122 105.525 87.9956 105.519 87.8811L105.535 87.8928L105.54 76.0338L116.447 76.0358C117.474 90.0981 128.566 101.35 142.554 102.64C138.085 113.264 131.219 122.649 122.621 130.076C117.075 117.176 102.942 110.109 89.255 113.467H89.2514V113.467ZM90.1044 94.1676C86.9561 91.8799 86.2562 87.4653 88.5475 84.3155C90.8348 81.1656 95.2514 80.4657 98.4013 82.753C101.549 85.0422 102.234 89.4456 99.9429 92.5974C97.6552 95.7453 93.2558 96.4569 90.1044 94.1676Z" fill="#EEA225"/>
<path d="M41.2116 100.486L50.0811 94.0486L57.1188 103.733L57.1248 103.716C57.2201 103.857 57.3233 103.996 57.4242 104.133C59.6279 107.169 63.0658 108.771 66.5511 108.773C66.66 108.773 66.7592 108.788 66.8677 108.783C67.1007 108.777 67.3314 108.75 67.5644 108.727C67.6805 108.718 67.795 108.722 67.9095 108.708C67.9802 108.703 68.0565 108.676 68.1289 108.668C68.4133 108.63 68.6841 108.588 68.9665 108.525L68.9838 108.531C69.1285 108.498 69.2735 108.447 69.4185 108.409C69.6379 108.35 69.8842 108.288 70.1035 108.216C70.1132 108.206 70.1132 108.207 70.1244 108.205C70.1646 108.193 70.2084 108.186 70.2486 108.17C70.3534 108.128 70.4639 108.088 70.5708 108.05L70.5672 108.063L81.844 104.408L85.2112 114.781C72.1582 120.105 64.8838 134.13 67.9782 147.832C56.4953 146.864 45.4471 143.236 35.7287 137.352C46.2807 128.092 48.6367 112.465 41.2116 100.486V100.486ZM59.8299 95.3327C61.032 91.6316 65.0172 89.5998 68.7203 90.8035C72.4213 92.0052 74.4535 95.9908 73.2494 99.6939C72.0457 103.395 68.0678 105.406 64.3647 104.204C60.6636 103 58.6262 99.0358 59.8299 95.3327" fill="#EEA225"/>
<path d="M367.332 84.3788C364.106 88.6866 358.956 91.4644 353.161 91.4644C349.171 91.4644 345.495 90.1442 342.536 87.9253C338.24 84.6975 335.46 79.552 335.46 73.7541C335.46 67.9678 338.24 62.8204 342.536 59.5829C345.495 57.364 349.171 56.0438 353.161 56.0438C358.956 56.0438 364.106 58.8332 367.332 63.1313L374.889 55.5745C369.69 49.3781 361.887 45.4307 353.161 45.4307C346.233 45.4307 339.897 47.9092 334.981 52.0261C328.785 57.2346 324.837 65.0297 324.837 73.7541C324.837 82.4785 328.785 90.2852 334.981 95.4821C339.897 99.6086 346.233 102.089 353.161 102.089C361.887 102.089 369.69 98.1398 374.898 91.9429L367.332 84.3788Z" fill="#666666"/>
<path d="M309.893 81.8156C306.965 87.5428 301.009 91.4612 294.133 91.4612C291.174 91.4612 288.394 90.74 285.958 89.4504C280.29 86.5127 276.423 80.585 276.423 73.759C276.423 66.8735 280.342 60.9157 286.078 57.9984C288.486 56.7489 291.226 56.0486 294.133 56.0486C297.088 56.0486 299.874 56.7754 302.323 58.0559L290.379 70.0044L294.133 73.7606L297.89 77.5171L309.832 65.5726C309.834 65.5726 309.834 65.5725 309.834 65.5745L317.569 57.8381C312.473 50.3423 303.878 45.4243 294.133 45.4243C288.276 45.4243 282.83 47.2041 278.321 50.2415C270.766 55.3295 265.8 63.9663 265.8 73.759C265.8 89.403 278.482 102.084 294.133 102.084C303.916 102.084 312.553 97.1181 317.649 89.5709L309.893 81.8156V81.8156Z" fill="#666666"/>
<path d="M230.28 45.4194C227.632 45.4194 225.075 45.7838 222.651 46.4652V57.7649C224.965 56.6585 227.55 56.0401 230.28 56.0401C240.057 56.0401 247.981 63.9634 247.981 73.7408C247.981 83.5203 240.057 91.4528 230.28 91.4528C220.5 91.4528 212.579 83.5203 212.579 73.7408C212.579 73.5998 212.579 73.468 212.589 73.325V51.6275L212.579 51.6372V10.0068H201.947V73.7525C201.957 81.5725 205.122 88.6525 210.255 93.7746C215.378 98.9088 222.458 102.074 230.28 102.074C245.92 102.074 258.611 89.3925 258.611 73.7408C258.611 58.0988 245.92 45.4194 230.28 45.4194Z" fill="#666666"/>
<path d="M187.004 81.8397C184.075 87.5669 178.119 91.4838 171.242 91.4838C168.285 91.4838 165.505 90.7642 163.067 89.4745C157.4 86.5368 153.533 80.6091 153.533 73.7851C153.533 66.8976 157.452 60.9414 163.189 58.0225C165.597 56.773 168.334 56.0748 171.242 56.0748C174.199 56.0748 176.984 56.7996 179.434 58.08L167.487 70.0286L175 77.5412L186.943 65.5967C186.945 65.5967 186.945 65.5987 186.945 65.5987L194.679 57.8643C189.583 50.3665 180.989 45.45 171.242 45.45C165.387 45.45 159.938 47.2282 155.432 50.2672C147.877 55.3556 142.909 63.9904 142.909 73.7851C142.909 89.4251 155.592 102.108 171.242 102.108C181.027 102.108 189.664 97.1423 194.759 89.5951L187.004 81.8397V81.8397Z" fill="#666666"/>
</svg>
