<svg width="609" height="301" viewBox="0 0 609 301" fill="none" xmlns="http://www.w3.org/2000/svg">
<path d="M314.427 175.32C316.81 172.937 318.81 170.339 320.474 167.578L309.884 156.988C307.716 159.801 305.706 162.195 303.538 164.429C293.697 174.273 277.741 174.273 267.9 164.429C258.06 154.588 258.041 138.652 267.883 128.808C276.474 120.218 289.736 119.127 299.508 125.538L278.119 146.929L288.709 157.519L315.4 130.824L315.343 130.738L320.433 125.609C318.779 122.875 316.79 120.3 314.425 117.937C306.503 110.015 296.102 106.023 285.714 106.023C275.333 106.023 264.964 110.015 257.043 117.937C241.2 133.781 241.2 159.476 257.043 175.32C272.889 191.164 298.585 191.164 314.427 175.32Z" fill="white"/>
<path d="M115.643 137.238C121.081 137.238 125.495 141.652 125.495 147.089C125.495 152.524 121.081 156.938 115.643 156.938C110.206 156.938 105.819 152.524 105.819 147.089C105.819 141.652 110.206 137.238 115.643 137.238ZM100.768 114.738L113.143 123.738L103.319 137.265H103.342C103.198 137.449 103.057 137.644 102.917 137.838C99.838 142.077 99.19 147.331 100.694 151.963C100.741 152.105 100.764 152.245 100.819 152.39C100.928 152.695 101.065 152.988 101.194 153.288C101.256 153.436 101.299 153.588 101.366 153.737C101.409 153.831 101.471 153.92 101.518 154.014C101.69 154.369 101.866 154.712 102.069 155.061V155.087C102.174 155.264 102.303 155.436 102.417 155.611C102.592 155.876 102.776 156.174 102.967 156.435C102.983 156.451 102.983 156.447 102.991 156.461C103.022 156.509 103.057 156.564 103.092 156.61C103.19 156.731 103.292 156.86 103.393 156.985H103.366L113.092 170.383L100.768 179.335C88.065 164.292 66.303 160.688 49.444 170.71C45.772 155.039 45.827 138.801 49.444 123.359C66.295 133.382 88.065 129.765 100.768 114.738Z" fill="white"/>
<path d="M148.889 111.078C150.569 116.25 147.737 121.808 142.565 123.488C137.397 125.168 131.835 122.335 130.155 117.168C128.475 111.996 131.315 106.457 136.487 104.777C141.655 103.097 147.21 105.906 148.889 111.078ZM165.69 89.976L160.956 104.527L145.057 99.363L145.065 99.386C144.842 99.304 144.612 99.234 144.385 99.159C139.405 97.542 134.206 98.55 130.264 101.409C130.143 101.499 130.018 101.565 129.901 101.659C129.643 101.858 129.405 102.077 129.159 102.292C129.038 102.401 128.905 102.487 128.788 102.601C128.71 102.667 128.643 102.757 128.569 102.828C128.284 103.101 128.01 103.375 127.741 103.676L127.717 103.684C127.581 103.839 127.46 104.016 127.327 104.176C127.127 104.426 126.901 104.696 126.713 104.957C126.706 104.977 126.706 104.977 126.698 104.988C126.663 105.031 126.62 105.078 126.585 105.128C126.499 105.262 126.409 105.395 126.319 105.527L126.315 105.507L116.573 118.894L104.252 109.941C114.635 93.21 111.338 71.398 96.596 58.46C110.366 50.128 125.823 45.164 141.627 43.832C137.307 62.953 147.475 82.539 165.694 89.977H165.69V89.976Z" fill="white"/>
<path d="M184.042 134.613C179.647 137.808 173.479 136.832 170.284 132.433C167.088 128.035 168.065 121.87 172.463 118.675C176.862 115.48 183.006 116.472 186.202 120.87C189.397 125.269 188.44 131.417 184.042 134.613ZM209.303 144.074L194.002 144.066L193.999 127.347L193.979 127.363C193.991 127.128 193.987 126.886 193.987 126.648C193.987 121.41 191.42 116.777 187.483 113.914C187.362 113.824 187.26 113.726 187.131 113.641C186.866 113.457 186.581 113.301 186.299 113.137C186.163 113.051 186.038 112.953 185.893 112.875C185.807 112.824 185.702 112.785 185.612 112.738C185.26 112.55 184.92 112.375 184.549 112.214L184.534 112.192C184.346 112.11 184.139 112.051 183.944 111.973C183.647 111.86 183.319 111.731 183.014 111.628C182.991 111.628 182.995 111.628 182.979 111.625C182.924 111.605 182.866 111.578 182.811 111.562C182.659 111.519 182.502 111.476 182.346 111.433L182.366 111.42L166.624 106.295L171.335 91.812C190.448 96.515 210.174 86.64 217.924 68.621C230.104 79.141 239.608 92.309 245.756 106.926C226.233 108.726 210.749 124.449 209.303 144.074Z" fill="white"/>
<path d="M172.522 175.32C168.124 172.125 167.147 165.96 170.346 161.562C173.542 157.164 179.706 156.187 184.104 159.382C188.502 162.577 189.456 168.726 186.26 173.124C183.065 177.523 176.92 178.515 172.522 175.32ZM171.331 202.265L166.612 187.709L182.51 182.542L182.491 182.53C182.717 182.463 182.944 182.385 183.17 182.315C188.155 180.694 191.768 176.823 193.276 172.194C193.319 172.049 193.381 171.924 193.424 171.776C193.514 171.463 193.577 171.147 193.647 170.827C193.686 170.67 193.741 170.522 193.772 170.362C193.792 170.264 193.795 170.151 193.811 170.049C193.881 169.658 193.944 169.279 193.983 168.876L193.999 168.857C194.018 168.65 194.01 168.435 194.022 168.224C194.042 167.908 194.065 167.556 194.065 167.236C194.057 167.216 194.057 167.216 194.057 167.201C194.061 167.146 194.069 167.08 194.065 167.021C194.057 166.861 194.053 166.701 194.045 166.541L194.065 166.557L194.073 150L209.303 150.003C210.737 169.637 226.225 185.348 245.756 187.149C239.514 201.985 229.928 215.089 217.924 225.458C210.178 207.446 190.444 197.579 171.335 202.267H171.331V202.265Z" fill="white"/>
<path d="M130.249 176.941C131.928 171.773 137.491 168.937 142.663 170.617C147.831 172.296 150.667 177.859 148.987 183.031C147.307 188.199 141.752 191.008 136.581 189.328C131.413 187.648 128.569 182.113 130.249 176.941ZM104.252 184.136L116.639 175.148L126.463 188.67L126.471 188.648C126.604 188.843 126.749 189.039 126.889 189.23C129.967 193.468 134.768 195.707 139.635 195.709C139.784 195.709 139.924 195.73 140.077 195.722C140.401 195.713 140.725 195.675 141.049 195.644C141.21 195.632 141.37 195.636 141.53 195.617C141.631 195.609 141.737 195.574 141.838 195.562C142.233 195.507 142.612 195.449 143.006 195.363L143.03 195.371C143.233 195.324 143.436 195.253 143.639 195.199C143.944 195.117 144.288 195.031 144.592 194.929C144.608 194.917 144.608 194.917 144.624 194.913C144.678 194.897 144.741 194.886 144.795 194.866C144.944 194.807 145.096 194.752 145.245 194.698L145.241 194.718L160.987 189.613L165.69 204.097C147.463 211.531 137.307 231.113 141.627 250.245C125.592 248.893 110.167 243.827 96.596 235.612C111.331 222.683 114.62 200.863 104.252 184.136Z" fill="white"/>
<path d="M324 56.304V144.502C323.967 145.194 323.953 145.877 323.953 146.577C323.953 147.186 323.974 147.8 324 148.405C324.949 169.968 342.725 187.155 364.527 187.155C386.931 187.155 405.099 168.987 405.099 146.577C405.099 124.17 386.931 106.002 364.527 106.002C361.142 106.002 357.863 106.42 354.724 107.202V122.127C358.259 121.667 361.238 121.413 364.527 121.377C378.445 121.377 389.724 132.659 389.724 146.577C389.724 160.495 378.445 171.78 364.527 171.78C351.22 171.78 340.336 161.467 339.402 148.405V144.655C339.41 144.569 339.418 144.487 339.423 144.405V114.73C339.417 114.738 339.409 114.746 339.402 114.752V56.304H324Z" fill="white"/>
<path d="M554.234 117.914C556.595 120.277 558.588 122.852 560.246 125.585L555.156 130.714L555.211 130.766L549.82 136.157C548.052 133.836 546.091 131.547 543.931 129.352C539.341 124.395 532.792 121.309 525.495 121.309C511.577 121.309 500.284 132.598 500.284 146.516C500.284 149.046 500.669 151.481 501.362 153.782C501.477 154.169 501.598 154.555 501.733 154.93C501.835 155.21 501.926 155.489 502.034 155.762C502.077 155.871 502.098 155.973 502.141 156.078C502.172 156.156 502.233 156.234 502.262 156.308C502.391 156.613 502.512 156.894 502.655 157.195C502.684 157.269 502.723 157.367 502.759 157.441C502.902 157.738 503.048 158.015 503.202 158.308C503.323 158.535 503.462 158.757 503.591 158.98C503.706 159.179 503.827 159.382 503.945 159.582C504.138 159.902 504.338 160.223 504.545 160.535C504.592 160.605 504.627 160.66 504.67 160.73C504.842 160.984 505.014 161.257 505.203 161.507C505.217 161.538 505.256 161.545 505.271 161.577C505.75 162.222 506.263 162.862 506.81 163.468C507.078 163.761 507.376 164.034 507.66 164.316C507.681 164.338 507.691 164.386 507.713 164.406C517.549 174.242 533.492 174.246 543.336 164.421C545.66 162.035 547.988 159.313 549.734 156.964L560.289 167.516C558.625 170.278 556.609 172.895 554.225 175.278C538.381 191.122 512.707 191.141 496.864 175.297C481.014 159.45 481.014 133.759 496.864 117.915C504.786 109.993 515.147 106.001 525.536 106.001C535.919 106.001 546.321 109.993 554.243 117.915H554.234V117.914Z" fill="white"/>
<path d="M479.294 175.285C481.677 172.902 483.673 170.305 485.337 167.543L474.751 156.953C472.585 159.766 470.573 162.16 468.405 164.398C458.565 174.238 442.608 174.238 432.766 164.398C422.922 154.554 422.909 138.617 432.748 128.777C441.34 120.183 454.598 119.093 464.375 125.507L442.986 146.894L453.576 157.484L480.265 130.793L480.21 130.703L485.3 125.578C483.644 122.839 481.654 120.265 479.292 117.906C471.368 109.98 460.964 105.988 450.583 105.988C440.2 105.988 429.833 109.98 421.911 117.902C406.067 133.75 406.067 159.441 421.911 175.285C437.755 191.127 463.449 191.127 479.294 175.285Z" fill="white"/>
<path d="M477.92 209.463H464.816V189.833H469.747V205.719H477.92V209.463ZM490.049 209.463H479.476V206.035H482.297V193.26H479.476V189.833H490.049V193.26H487.228V206.035H490.049V209.463ZM499.383 209.819C497.88 209.819 496.558 209.674 495.415 209.384C494.281 209.094 493.227 208.734 492.251 208.303V203.636H492.699C493.684 204.471 494.769 205.113 495.956 205.561C497.142 206.009 498.293 206.233 499.41 206.233C499.691 206.233 500.06 206.202 500.517 206.141C500.983 206.079 501.356 205.983 501.638 205.851C501.98 205.701 502.271 205.495 502.508 205.231C502.745 204.959 502.864 204.603 502.864 204.163C502.864 203.671 502.67 203.271 502.284 202.964C501.897 202.656 501.436 202.432 500.899 202.291C500.231 202.115 499.515 201.948 498.75 201.79C497.995 201.632 497.287 201.439 496.628 201.21C495.107 200.674 494.018 199.953 493.358 199.048C492.699 198.143 492.37 197.009 492.37 195.647C492.37 193.81 493.147 192.324 494.703 191.191C496.259 190.048 498.201 189.477 500.53 189.477C501.699 189.477 502.859 189.595 504.011 189.833C505.171 190.07 506.208 190.391 507.122 190.795V195.278H506.687C505.958 194.654 505.065 194.126 504.011 193.696C502.965 193.265 501.888 193.05 500.781 193.05C500.35 193.05 499.963 193.08 499.621 193.142C499.278 193.203 498.917 193.322 498.54 193.498C498.232 193.638 497.964 193.849 497.735 194.131C497.516 194.403 497.406 194.711 497.406 195.053C497.406 195.554 497.582 195.954 497.933 196.253C498.293 196.543 498.983 196.807 500.003 197.044C500.662 197.194 501.295 197.339 501.901 197.479C502.517 197.62 503.171 197.813 503.866 198.059C505.228 198.551 506.239 199.215 506.898 200.05C507.566 200.876 507.9 201.97 507.9 203.333C507.9 205.284 507.131 206.853 505.593 208.039C504.063 209.226 501.994 209.819 499.383 209.819ZM526.133 203.451C526.133 204.427 525.948 205.284 525.579 206.022C525.21 206.76 524.713 207.371 524.089 207.855C523.351 208.435 522.538 208.848 521.65 209.094C520.771 209.34 519.651 209.463 518.289 209.463H510.431V189.833H517.366C518.807 189.833 519.897 189.89 520.635 190.004C521.382 190.11 522.081 190.338 522.731 190.69C523.435 191.068 523.958 191.573 524.3 192.206C524.652 192.839 524.828 193.568 524.828 194.394C524.828 195.352 524.586 196.205 524.103 196.952C523.628 197.699 522.969 198.248 522.125 198.6V198.705C523.338 198.96 524.309 199.483 525.039 200.274C525.768 201.056 526.133 202.115 526.133 203.451ZM519.818 195.383C519.818 195.067 519.734 194.741 519.567 194.407C519.409 194.073 519.159 193.832 518.816 193.682C518.491 193.542 518.104 193.467 517.656 193.458C517.216 193.441 516.557 193.432 515.678 193.432H515.335V197.585H515.955C516.799 197.585 517.388 197.576 517.722 197.558C518.064 197.541 518.416 197.448 518.776 197.281C519.172 197.097 519.444 196.842 519.594 196.517C519.743 196.192 519.818 195.814 519.818 195.383ZM521.057 203.359C521.057 202.753 520.934 202.278 520.688 201.935C520.442 201.592 520.073 201.333 519.581 201.157C519.282 201.043 518.869 200.982 518.341 200.973C517.823 200.955 517.124 200.946 516.245 200.946H515.335V205.864H515.599C516.882 205.864 517.77 205.855 518.262 205.838C518.754 205.82 519.255 205.701 519.765 205.482C520.213 205.288 520.539 205.007 520.741 204.638C520.952 204.26 521.057 203.834 521.057 203.359ZM546.844 199.654C546.844 202.827 545.996 205.323 544.3 207.143C542.604 208.962 540.279 209.872 537.326 209.872C534.364 209.872 532.039 208.953 530.352 207.116C528.664 205.271 527.82 202.783 527.82 199.654C527.82 196.499 528.664 194.008 530.352 192.179C532.039 190.342 534.364 189.424 537.326 189.424C540.279 189.424 542.604 190.338 544.3 192.166C545.996 193.986 546.844 196.482 546.844 199.654ZM541.755 199.641C541.755 198.472 541.632 197.479 541.386 196.662C541.149 195.836 540.828 195.159 540.424 194.632C540.002 194.095 539.523 193.713 538.987 193.485C538.459 193.247 537.91 193.129 537.339 193.129C536.732 193.129 536.183 193.238 535.691 193.458C535.199 193.669 534.724 194.051 534.267 194.605C533.863 195.115 533.533 195.792 533.278 196.635C533.032 197.479 532.909 198.486 532.909 199.654C532.909 200.859 533.028 201.861 533.265 202.66C533.502 203.451 533.828 204.115 534.241 204.651C534.663 205.196 535.142 205.587 535.678 205.824C536.214 206.053 536.768 206.167 537.339 206.167C537.919 206.167 538.481 206.044 539.026 205.798C539.571 205.543 540.042 205.152 540.437 204.625C540.859 204.053 541.184 203.39 541.413 202.634C541.641 201.869 541.755 200.872 541.755 199.641ZM566.593 209.463H561.847L554.28 195.779V209.463H549.771V189.833H555.822L562.084 201.078V189.833H566.593V209.463Z" fill="white"/>
</svg>
